<svg xmlns="http://www.w3.org/2000/svg" viewBox="0 0 512 512">
	<defs>
		<style>
			#rocket {
				fill: hsl(-10, 90%, 66%);
			}

			#rocket #body {
				fill: #E6E9ED;
			}

			#kitty #head {
				stroke: white;
				stroke-width: 20;
				stroke-linecap: round;
				stroke-linejoin: round;
				fill: lightgrey;
			}

			#kitty #mouth, 
			#kitty #whiskers {
				stroke-width: 20;
			}

			#kitty #whiskers {
				stroke-linecap: round;
			}

			#kitty #eyes-open {
				fill: black;
			}

			#kitty #eyes-closed {
				stroke: black;
				stroke-width: 25;
				stroke-linecap: round;
			}

			#kitty #nose {
				fill: hsl(0, 100%, 75%);
			}

			#kitty #mouth, 
			#kitty #whiskers {
				stroke: grey;
			}
		</style>
	</defs>

	<rect width="512" height="512" fill="hsl(200, 100%, 66%)" />

	<g id="flame" transform="translate(256, 256) scale(1, 0.5) translate(0, 180) translate(-256, -256)">
		<g transform="translate(-196, 275) scale(1.25, 0.75) rotate(-45)">
			<path style="fill:#FFCE54;" d="M17.25,493.132c3.625-10.188,8.344-23.141,13.625-36.563c19.875-50.642,30.407-65.782,34.938-70.298
				c6.781-6.797,15.188-11.375,24.313-13.266l3.156-0.656l35.344-35.75l42.312,48.875l-32.906,31.516l-0.688,3.235
				c-1.875,9.125-6.469,17.531-13.25,24.344c-4.531,4.5-19.656,15.062-70.282,34.923C40.376,484.757,27.406,489.507,17.25,493.132z"/>
			<path style="fill:#F6BB42;" d="M129.158,320.943L87.97,362.584c-10.719,2.219-21.126,7.609-29.688,16.172
				C36.407,400.63,0,510.366,0,510.366s109.72-36.391,131.626-58.282c8.531-8.547,13.938-18.969,16.156-29.703l37.812-36.22
				L129.158,320.943z M133.064,407.005l-4.781,4.594l-1.344,6.484c-1.469,7.079-5.062,13.642-10.375,18.954
				c-1.75,1.75-13.219,11.578-66.563,32.517c-5.094,1.984-10.094,3.906-14.906,5.703c1.812-4.812,3.719-9.812,5.719-14.876
				c20.938-53.36,30.75-64.829,32.531-66.579c5.313-5.328,11.876-8.906,18.938-10.359l6.312-1.312l4.531-4.578l24.969-25.281
				l28.156,32.516L133.064,407.005z"/>
		</g>
		<animate id="flicker"
			attributeName="opacity"
			values="0;1;0"
			begin="0s;flicker.end+0.25s"
			dur="0.5s" />
	</g>

	<g id="rocket" transform="translate(-196, 300) scale(1.25, 0.75) rotate(-45)">
		<g>
			<path d="M199.909,423.397c5.969-2.797,11.938-5.767,17.875-8.876l121.501-86.781
				c4.969-4.641,9.875-9.391,14.719-14.203c2.781-2.812,5.563-5.625,8.282-8.469c-0.469,55.359-25.845,115.923-74.032,164.127
				c-16.062,16.047-33.469,29.562-51.625,40.484c-0.125,0.078-0.845,0.5-0.845,0.5c-4.031,2.188-9.188,1.578-12.594-1.828
				c-1.125-1.141-1.938-2.469-2.438-3.875c0,0-0.375-1.109-0.469-1.594l-21.938-78.767
				C198.878,423.881,199.378,423.631,199.909,423.397z"/>
			<path d="M207.534,150.269c-2.844,2.734-5.656,5.516-8.469,8.312c-4.813,4.828-9.563,9.734-14.188,14.703
				c-21.281,3-86.812,121.517-86.812,121.517c-3.094,5.938-6.062,11.892-8.875,17.876c-0.25,0.516-0.469,1.031-0.719,1.547
				L9.688,292.285c-0.469-0.094-1.594-0.469-1.594-0.469c-1.406-0.5-2.719-1.312-3.875-2.453c-3.406-3.406-4-8.547-1.812-12.594
				c0,0,0.406-0.703,0.5-0.828c10.906-18.157,24.406-35.563,40.469-51.625C91.595,176.097,152.158,150.722,207.534,150.269z"/>
		</g>
		<path id="body" d="M197.003,151.05c-60.408,60.422-103.97,129.438-128.252,196.299
			c-1.281,3.75-0.469,8.031,2.531,11.016l82.907,82.938c3,2.969,7.281,3.797,11.031,2.516
			c66.876-24.282,135.877-67.829,196.285-128.251c93.876-93.845,146.563-207.081,150.501-303.645c0.125-2.875-0.906-6.047-3.094-8.25
			c-2.219-2.203-5.375-3.234-8.281-3.109C404.069,4.501,290.848,57.205,197.003,151.05z"/>
		<path d="M479.225,145.816L366.755,33.361c45.813-19.922,91.47-31.063,133.876-32.797
			c2.906-0.125,6.062,0.906,8.281,3.109c2.188,2.203,3.219,5.375,3.094,8.25C510.287,54.361,499.131,100.003,479.225,145.816z"/>
	</g>

	<g id="kitty" transform="translate(256, 256) scale(0.75) translate(-256, -256)">
		<path id="head" d="M 204.6, 186.1 l -42.4 -69.5 c -1.6 -4 -5.4 -6.8 -9.7 -7.2 -4.3 -.4 -8.5, 1.6 -10.8, 5.3 -112.2, 238.9 -53.9, 304.5, 114.4, 303.7, 252.7, 1, 166.6 -206.3, 114.4 -310.7 -5.1-7.9 -16.9-6.9 -20.6, 1.8 l -42.4, 76.5 h -102.9 Z"/>

		<g id="eyes-open">
			<ellipse cx="205" cy="270" rx="20" ry="30" />
			<ellipse cx="305" cy="270" rx="20" ry="30" />
			<animate id="eyes-open-blink"
				attributeName="opacity"
				values="0;1"
				begin="10s;eyes-open-blink.end+30s"
				dur="1s"
				fill="remove"
				calcMode="discrete"
				repeatCount="1" />
		</g>

		<g id="eyes-closed" opacity="0">
			<line x1="185" y1="270" x2="225" y2="270" />
			<line x1="285" y1="270" x2="325" y2="270" />
			<animate id="eyes-closed-blink"
				attributeName="opacity"
				values="1;0"
				begin="10s;eyes-closed-blink.end+30s"
				dur="1s"
				fill="remove"
				calcMode="discrete"
				repeatCount="1" />
		</g>

		<g id="mouth" style="display:none">
			<line x1="255" y1="315" x2="255" y2="365" />
			<line x1="215" y1="370" x2="255" y2="365" />
			<line x1="255" y1="365" x2="295" y2="370" />
		</g>

		<g id="nose">
			<ellipse cx="255" cy="320" rx="30" ry="20" />
		</g>

		<g id="whiskers">
			<line x1="30" y1="330" x2="150" y2="330" />
			<line x1="60" y1="390" x2="150" y2="360" />
			<line x1="475" y1="330" x2="350" y2="330" />
			<line x1="445" y1="390" x2="350" y2="360" />
		</g>
	</g>
</svg>