<svg version="1" xmlns="http://www.w3.org/2000/svg" viewBox="0 0 48 48" enable-background="new 0 0 48 48">
	<defs>
		<style>
			.gradient1{fill:url(#linear-gradient);}
		</style>
		<linearGradient id="linear-gradient" x1="0" y1="20" x2="0" y2="50" gradientUnits="userSpaceOnUse"><stop offset="0" stop-color="lightgrey"/><stop offset="1" stop-color="grey"/>
		</linearGradient>
	</defs>
	<g class="speaker">
		<path fill="darkgrey" d="M14,32H7c-1.1,0-2-0.9-2-2V18c0-1.1,0.9-2,2-2h7V32z"/>
		<polygon fill="lightgrey" points="26,42 14,32 14,16 26,6" class="gradient1" />
	</g>
	<g class="sound">
		<path fill="#81D4FA" d="M28,7.1v2c7.3,1,13,7.3,13,14.9s-5.7,13.9-13,14.9v2c8.4-1,15-8.2,15-16.9S36.4,8.1,28,7.1z"/>
		<path fill="#03A9F4" d="M28,17.3v2.1c1.8,0.8,3,2.5,3,4.6s-1.2,3.8-3,4.6v2.1c2.9-0.9,5-3.5,5-6.7S30.9,18.2,28,17.3z"/>
		<path fill="#4FC3F7" d="M28,12.2v2c4.6,0.9,8,5,8,9.8s-3.4,8.9-8,9.8v2c5.7-1,10-5.9,10-11.8S33.7,13.1,28,12.2z"/>
	</g>
</svg>
