<svg 
	id="astro-full-icon" 
	xmlns:svg="http://www.w3.org/2000/svg" 
	xmlns="http://www.w3.org/2000/svg" 
	viewBox="0 16 48 24">
	
	<style>
		.folder-top {
			fill: tan;
		}
		.folder-body {
			fill: wheat;
		}
		.folder-contents {
			fill: white;
		}
		.folder-icon {
			fill: burlywood;
		}
	</style>

	<g class="folder-top" transform="translate(0 1.5)">
		<path d="M 43.5, 11.5 H 21 L 16.5, 7 h  -12 c  -3, 0  -3, 0  -3, 3 v 8 h 45 v  -3.5 c 0, 0 0,  -3  -3,  -3 z" />
	</g>

	<g class="folder-body">
		<path id="folder -cover" d="M 3, 16.75 C 1.5, 16.75 1.5, 18 1.5, 18 v 25.75 c 0, 2.25 0, 2 3, 2 h 39 c 3, 0 3, 0.25 3,  -2 V 18 c 0, 0 0,  -1.25  -1.5,  -1.25 z" />
	</g>

	<rect class="folder-contents" x="3" y="14.5" width="42" height="2.25" />

	<g class="folder-icon" transform="scale(1.5) translate(8, 13)">
		<path d="M2.34313 13.6569C1.78335 13.0971 1.32387 12.475 0.964684 11.8129C0.616724 12.3943 0.344087 12.943 0.180413 13.4311C0.0744537 13.7471 -0.0046342 14.0918 0.000211182 14.433C0.00512994 14.7793 0.101017 15.2121 0.444436 15.5556C0.787856 15.899 1.22074 15.9949 1.56705 15.9998C1.90818 16.0046 2.25291 15.9255 2.56888 15.8196C3.20464 15.6064 3.9433 15.2083 4.72317 14.6997C5.16617 14.4108 5.63715 14.0765 6.12819 13.7023C6.71718 13.8955 7.34639 14 8 14C11.3137 14 14 11.3137 14 8C14 7.34639 13.8955 6.71718 13.7023 6.12819C14.0765 5.63715 14.4108 5.16617 14.6997 4.72317C15.2083 3.9433 15.6064 3.20464 15.8196 2.56888C15.9255 2.25291 16.0046 1.90818 15.9998 1.56705C15.9949 1.22074 15.899 0.787856 15.5556 0.444436C15.2121 0.101017 14.7793 0.00512994 14.433 0.000211182C14.0918 -0.0046342 13.7471 0.0744537 13.4311 0.180413C12.943 0.344088 12.3943 0.616728 11.8129 0.964692C12.475 1.32388 13.0971 1.78336 13.6568 2.34314C13.3784 3.01413 13.0579 3.6038 12.6403 4.19604C12.6359 4.20221 12.6315 4.20838 12.6272 4.21457C11.7592 5.44256 10.5387 6.89539 9.07872 8.38692C8.8506 8.61996 8.62 8.85057 8.38695 9.07868C6.88789 10.546 5.42794 11.7714 4.19603 12.6402C3.60792 13.055 3.00258 13.3649 2.34313 13.6569Z" />
		<path d="M8 2C9.14392 2 10.2131 2.32012 11.1228 2.87567C10.2717 4.11121 8.95721 5.68369 7.32047 7.32043C5.6837 8.9572 4.11121 10.2717 2.87566 11.1227C2.32012 10.2131 2 9.14392 2 8C2 4.68629 4.68629 2 8 2Z" />
	</g>
</svg>