<svg 
	id="flowers-full-icon" 
	xmlns:svg="http://www.w3.org/2000/svg" 
	xmlns="http://www.w3.org/2000/svg" 
	viewBox="0 16 48 24">
	
	<style>
		.folder-top {
			fill: tan;
		}
		.folder-body {
			fill: wheat;
		}
		.folder-contents {
			fill: white;
		}
		.folder-icon {
			fill: burlywood;
		}
	</style>

	<g class="folder-top" transform="translate(0 1.5)">
		<path d="M 43.5,11.5 H 21 L 16.5,7 h -12 c -3,0 -3,0 -3,3 v 8 h 45 v -3.5 c 0,0 0,-3 -3,-3 z" />
	</g>

	<g class="folder-body">
		<path id="folder-cover" d="M 3,16.75 C 1.5,16.75 1.5,18 1.5,18 v 25.75 c 0,2.25 0,2 3,2 h 39 c 3,0 3,0.25 3,-2 V 18 c 0,0 0,-1.25 -1.5,-1.25 z" />
	</g>
	
	<rect class="folder-contents" x="3" y="14.5" width="42" height="2.25" />

	<g class="folder-icon" transform="translate(12 19)">
		<path d="M1 15c4.075-1.121 9.51.505 11 6 1.985-5.939 7.953-7.051 11-6-2.467 1.524-3.497 9-11 9s-8.487-7.471-11-9zm8.203-12.081c.008-1.612 1.319-2.919 2.933-2.919 1.615 0 2.926 1.307 2.934 2.919 1.4-.799 3.187-.317 3.995 1.081.807 1.398.331 3.187-1.062 4 1.393.813 1.869 2.602 1.062 4-.808 1.398-2.595 1.88-3.995 1.081-.008 1.612-1.319 2.919-2.934 2.919-1.614 0-2.925-1.307-2.933-2.919-1.4.799-3.188.317-3.995-1.081-.807-1.398-.331-3.187 1.062-4-1.393-.813-1.869-2.602-1.062-4 .807-1.398 2.595-1.88 3.995-1.081zm2.797 2.581c1.38 0 2.5 1.12 2.5 2.5s-1.12 2.5-2.5 2.5-2.5-1.12-2.5-2.5 1.12-2.5 2.5-2.5z"/>
	</g>
</svg>