<svg 
	id="sports-empty-icon" 
	xmlns:svg="http://www.w3.org/2000/svg" 
	xmlns="http://www.w3.org/2000/svg" 
	viewBox="0 16 48 24">
	
	<style>
		.folder-top {
			fill: tan;
		}
		.folder-body {
			fill: wheat;
		}
		.folder-icon {
			fill: burlywood;
		}
	</style>

	<g class="folder-top" transform="translate(0 1.5)">
		<path d="M 43.5,11.5 H 21 L 16.5,7 h -12 c -3,0 -3,0 -3,3 v 8 h 45 v -3.5 c 0,0 0,-3 -3,-3 z" />
	</g>

	<g class="folder-body">
		<path id="folder-cover" d="M 3,16.75 C 1.5,16.75 1.5,18 1.5,18 v 25.75 c 0,2.25 0,2 3,2 h 39 c 3,0 3,0.25 3,-2 V 18 c 0,0 0,-1.25 -1.5,-1.25 z" />
	</g>

	<g class="folder-icon" transform="translate(12 19)">
		<path d="M16.965 10.694l-1.037-1.037-1.037 1.037 1.037 1.037-.707.707-1.037-1.037-1.037 1.037 1.037 1.036-.707.707-1.039-1.037-1.037 1.037 1.037 1.036-.707.707-1.037-1.036-1.037 1.037 1.037 1.036-.707.707-3.49-3.487.708-.707 1.037 1.037 1.038-1.037-1.038-1.036.708-.707 1.037 1.036 1.037-1.036-1.037-1.037.707-.707 1.037 1.037 1.037-1.037-1.037-1.036.707-.707 1.039 1.036 1.037-1.036-1.037-1.037.707-.707 3.488 3.487-.707.707zm-7.581-8.518c-1.49.832-2.893 1.878-4.113 3.098-1.264 1.263-2.292 2.665-3.1 4.113.449 5.071 6.695 11.411 12.366 12.666 1.516-.777 3.012-1.81 4.362-3.16 1.294-1.292 2.345-2.781 3.156-4.353-1.243-5.666-7.597-11.922-12.671-12.364m-8.542 10.198c-.553 1.632-.841 3.254-.841 4.749 0 2.218.618 4.096 1.779 5.258 1.045 1.043 2.866 1.619 5.129 1.619 1.375 0 3.02-.235 4.741-.769-4.71-1.994-9.142-6.433-10.808-10.857m11.548-11.537c1.588-.542 3.202-.837 4.747-.837 2.234 0 4.099.634 5.252 1.788 1.047 1.045 1.611 2.91 1.611 5.135 0 1.532-.258 3.146-.758 4.742-1.99-4.716-6.429-9.153-10.852-10.828" />
	</g>
</svg>