<svg 
	id="pets-full-icon" 
	xmlns:svg="http://www.w3.org/2000/svg" 
	xmlns="http://www.w3.org/2000/svg" 
	viewBox="0 16 48 24">
	
	<style>
		.folder-top {
			fill: tan;
		}
		.folder-body {
			fill: wheat;
		}
		.folder-contents {
			fill: white;
		}
		.folder-icon {
			fill: burlywood;
		}
	</style>

	<g class="folder-top" transform="translate(0 1.5)">
		<path d="M 43.5,11.5 H 21 L 16.5,7 h -12 c -3,0 -3,0 -3,3 v 8 h 45 v -3.5 c 0,0 0,-3 -3,-3 z" />
	</g>

	<g class="folder-body">
		<path id="folder-cover" d="M 3,16.75 C 1.5,16.75 1.5,18 1.5,18 v 25.75 c 0,2.25 0,2 3,2 h 39 c 3,0 3,0.25 3,-2 V 18 c 0,0 0,-1.25 -1.5,-1.25 z" />
	</g>
	
	<rect class="folder-contents" x="3" y="14.5" width="42" height="2.25" />

	<g class="folder-icon" transform="translate(12 19)">
		<path d="M11.954 11c3.33 0 7.057 6.123 7.632 8.716.575 2.594-.996 4.729-3.484 4.112-1.092-.271-3.252-1.307-4.102-1.291-.925.016-2.379.836-3.587 1.252-2.657.916-4.717-1.283-4.01-4.073.774-3.051 4.48-8.716 7.551-8.716zm10.793-4.39c1.188.539 1.629 2.82.894 5.27-.704 2.341-2.33 3.806-4.556 2.796-1.931-.877-2.158-3.178-.894-5.27 1.274-2.107 3.367-3.336 4.556-2.796zm-21.968.706c-1.044.729-1.06 2.996.082 5.215 1.092 2.12 2.913 3.236 4.868 1.87 1.696-1.185 1.504-3.433-.082-5.215-1.596-1.793-3.824-2.599-4.868-1.87zm15.643-7.292c1.323.251 2.321 2.428 2.182 5.062-.134 2.517-1.405 4.382-3.882 3.912-2.149-.407-2.938-2.657-2.181-5.061.761-2.421 2.559-4.164 3.881-3.913zm-10.295.058c-1.268.451-1.92 2.756-1.377 5.337.519 2.467 2.062 4.114 4.437 3.269 2.06-.732 2.494-3.077 1.377-5.336-1.125-2.276-3.169-3.721-4.437-3.27z" />
	</g>
</svg>