<svg 
	id="playlists-full-icon" 
	xmlns:svg="http://www.w3.org/2000/svg" 
	xmlns="http://www.w3.org/2000/svg" 
	viewBox="0 16 48 24">
	
	<style>
		.folder-top {
			fill: tan;
		}
		.folder-body {
			fill: wheat;
		}
		.folder-contents {
			fill: white;
		}
		.folder-icon {
			fill: burlywood;
		}
	</style>

	<g class="folder-top" transform="translate(0 1.5)">
		<path d="M 43.5,11.5 H 21 L 16.5,7 h -12 c -3,0 -3,0 -3,3 v 8 h 45 v -3.5 c 0,0 0,-3 -3,-3 z" />
	</g>

	<g class="folder-body">
		<path id="folder-cover" d="M 3,16.75 C 1.5,16.75 1.5,18 1.5,18 v 25.75 c 0,2.25 0,2 3,2 h 39 c 3,0 3,0.25 3,-2 V 18 c 0,0 0,-1.25 -1.5,-1.25 z" />
	</g>
	
	<rect class="folder-contents" x="3" y="14.5" width="42" height="2.25" />

	<g class="folder-icon" transform="translate(12 19)">
		<path d="M12 21h-12v-2h12v2zm4-9l8-1v6.681c-.002 1.555-1.18 2.319-2.257 2.319-.907 0-1.743-.542-1.743-1.61 0-.96.903-1.852 2-2.073v-2.317l-4 .5v4.181c-.002 1.555-1.18 2.319-2.257 2.319-.907 0-1.743-.542-1.743-1.61 0-.96.903-1.852 2-2.073v-5.317zm-4 4.976h-12v-2h12v2zm0-3.976h-12v-2h12v2zm12-4h-24v-2h24v2zm0-4h-24v-2h24v2z" />
	</g>
</svg>