<svg 
	id="portraits-empty-icon" 
	xmlns:svg="http://www.w3.org/2000/svg" 
	xmlns="http://www.w3.org/2000/svg" 
	viewBox="0 16 48 24">
	
	<style>
		.folder-top {
			fill: tan;
		}
		.folder-body {
			fill: wheat;
		}
		.folder-icon {
			fill: burlywood;
		}
	</style>

	<g class="folder-top" transform="translate(0 1.5)">
		<path d="M 43.5,11.5 H 21 L 16.5,7 h -12 c -3,0 -3,0 -3,3 v 8 h 45 v -3.5 c 0,0 0,-3 -3,-3 z" />
	</g>

	<g class="folder-body">
		<path id="folder-cover" d="M 3,16.75 C 1.5,16.75 1.5,18 1.5,18 v 25.75 c 0,2.25 0,2 3,2 h 39 c 3,0 3,0.25 3,-2 V 18 c 0,0 0,-1.25 -1.5,-1.25 z" />
	</g>

	<g class="folder-icon" transform="translate(12 19)">
		<path d="M24 0v24h-24v-24h24zm-6.118 16.064c-2.293-.529-4.427-.993-3.394-2.945 3.146-5.942.834-9.119-2.488-9.119-3.388 0-5.643 3.299-2.488 9.119 1.064 1.963-1.15 2.427-3.394 2.945-2.048.473-2.124 1.49-2.118 3.269l.004.667h15.993l.003-.646c.007-1.792-.062-2.815-2.118-3.29z" />
	</g>
</svg>