<svg 
	id="nature-full-icon" 
	xmlns:svg="http://www.w3.org/2000/svg" 
	xmlns="http://www.w3.org/2000/svg" 
	viewBox="0 16 48 24">
	
	<style>
		.folder-top {
			fill: tan;
		}
		.folder-body {
			fill: wheat;
		}
		.folder-contents {
			fill: white;
		}
		.folder-icon {
			fill: burlywood;
		}
	</style>

	<g class="folder-top" transform="translate(0 1.5)">
		<path d="M 43.5,11.5 H 21 L 16.5,7 h -12 c -3,0 -3,0 -3,3 v 8 h 45 v -3.5 c 0,0 0,-3 -3,-3 z" />
	</g>

	<g class="folder-body">
		<path id="folder-cover" d="M 3,16.75 C 1.5,16.75 1.5,18 1.5,18 v 25.75 c 0,2.25 0,2 3,2 h 39 c 3,0 3,0.25 3,-2 V 18 c 0,0 0,-1.25 -1.5,-1.25 z" />
	</g>
	
	<rect class="folder-contents" x="3" y="14.5" width="42" height="2.25" />

	<g class="folder-icon" transform="translate(12 19)">
		<path d="M20.655 22.122v-2.197c1.907-.418 3.345-2.235 3.345-4.41 0-1.381-.292-1.662-3.536-10.041-.012 0-.16-.459-.646-.459-.488 0-.633.461-.643.461-.611 1.58-1.11 2.863-1.528 3.937.73 1.813.853 2.414.853 3.435 0 1.969-.884 3.737-2.289 4.935.59 1.085 1.59 1.883 2.771 2.142v1.744c-1.538-.339-3.53-.586-6.065-.637v-2.761c2.599-.436 4.583-2.7 4.583-5.423 0-1.687-.384-2.031-4.653-12.271-.014 0-.209-.562-.847-.562-.643 0-.833.564-.847.564-4.633 11.145-4.653 10.837-4.653 12.269 0 2.723 1.984 4.987 4.583 5.423v2.761c-2.562.051-4.571.303-6.116.648v-1.755c1.186-.263 2.187-1.077 2.769-2.186-1.375-1.198-2.236-2.946-2.236-4.891 0-.934.024-1.277.844-3.324-.424-1.088-.938-2.41-1.567-4.05-.011 0-.157-.459-.638-.459-.484 0-.627.461-.637.461-3.487 9.119-3.502 8.867-3.502 10.039 0 2.175 1.423 3.992 3.311 4.41v2.208c-2.587.852-3.311 1.882-3.311 1.882h24s-.732-1.038-3.345-1.893z" />
	</g>
</svg>